<svg xmlns="http://www.w3.org/2000/svg" xmlns:xlink="http://www.w3.org/1999/xlink" width="156" zoomAndPan="magnify" viewBox="0 0 116.88 30.000001" height="40" preserveAspectRatio="xMidYMid meet" version="1.0"><path stroke-linecap="butt" transform="matrix(0.0580645, 0, 0, 0.0580645, 50.740829, 14.26408)" fill="none" stroke-linejoin="miter" d="M 53.506475 23.438071 L 51.420972 17.450658 L 45.904479 17.450658 L 43.751701 23.438071 L 45.837204 23.438071 L 45.837204 23.976266 L 41.598923 23.976266 L 41.598923 23.438071 L 42.944409 23.438071 L 50.008211 4.332168 L 52.295538 4.332168 L 59.35934 23.438071 L 60.637552 23.438071 L 60.637552 23.976266 L 51.488246 23.976266 L 51.488246 23.438071 Z M 48.797274 9.51229 L 46.173576 16.845189 L 51.219149 16.845189 Z M 61.175746 4.466717 L 69.383212 4.466717 C 72.208732 4.466717 74.294236 4.870363 75.639722 5.677654 C 77.052483 6.484946 77.725226 7.964981 77.725226 10.050484 C 77.725226 12.337811 76.917934 13.952394 75.236076 14.82696 C 73.688767 15.566977 71.468715 15.970623 68.643194 15.970623 L 68.441371 15.970623 L 68.441371 23.438071 L 71.939635 23.438071 L 71.939635 23.976266 L 61.175746 23.976266 L 61.175746 23.438071 L 62.992153 23.438071 L 62.992153 5.004911 L 61.175746 5.004911 Z M 68.441371 5.004911 L 68.441371 15.499703 L 69.04684 15.499703 C 70.123229 15.499703 70.930521 15.096057 71.334167 14.35604 C 71.805087 13.548748 72.00691 12.337811 72.00691 10.588679 L 72.00691 9.310467 C 72.00691 7.695884 71.805087 6.619495 71.401441 5.946752 C 70.997795 5.341283 70.257778 5.004911 69.181389 5.004911 Z M 79.070712 4.466717 L 93.534688 4.466717 L 93.803785 9.98321 L 93.332865 9.98321 C 92.525573 8.099529 91.718281 6.821318 90.843715 6.148574 C 90.036424 5.475831 88.758212 5.072186 87.076354 5.072186 L 86.134514 5.072186 L 86.134514 13.683297 L 87.076354 13.683297 C 87.95092 13.683297 88.690937 13.4142 89.296406 12.741456 C 89.834601 12.068713 90.305521 11.194147 90.507344 10.050484 L 90.978264 10.050484 L 90.978264 18.325224 L 90.440069 18.325224 C 90.170972 16.912463 89.700052 15.903349 89.094583 15.29788 C 88.556389 14.759686 87.749097 14.423314 86.807257 14.423314 L 86.134514 14.423314 L 86.134514 23.370797 L 87.210903 23.370797 C 88.89276 23.370797 90.372795 22.899877 91.516458 21.823488 C 92.727396 20.814373 93.534688 19.536161 94.005608 17.921578 L 94.543802 17.921578 L 94.341979 23.976266 L 79.070712 23.976266 L 79.070712 23.370797 L 80.685295 23.370797 L 80.685295 5.072186 L 79.070712 5.072186 Z M 111.160556 4.466717 L 118.560729 4.466717 L 118.560729 5.004911 L 117.01342 5.004911 L 117.01342 23.438071 L 118.560729 23.438071 L 118.560729 23.976266 L 110.084167 23.976266 L 110.084167 23.438071 L 111.631476 23.438071 L 111.631476 6.014026 L 111.496927 6.014026 L 107.32592 23.976266 L 103.827656 23.976266 L 98.916632 5.946752 L 98.782083 5.946752 L 98.782083 23.438071 L 100.329392 23.438071 L 100.329392 23.976266 L 96.562031 23.976266 L 96.562031 23.438071 L 98.10934 23.438071 L 98.10934 5.004911 L 96.562031 5.004911 L 96.562031 4.466717 L 104.096754 4.466717 L 107.79684 18.863418 Z M 126.835469 18.056127 C 126.835469 19.737984 127.104566 21.08347 127.710035 22.025311 C 128.315504 22.899877 129.324618 23.370797 130.871927 23.370797 C 132.419236 23.370797 133.5629 22.899877 134.370191 21.958036 C 135.177483 21.016196 135.581129 19.536161 135.581129 17.585206 L 135.581129 5.004911 L 133.764723 5.004911 L 133.764723 4.466717 L 137.868455 4.466717 L 137.868455 5.004911 L 136.321146 5.004911 L 136.321146 17.450658 C 136.321146 19.737984 135.782952 21.419842 134.773837 22.563505 C 133.764723 23.707168 131.948316 24.312637 129.391893 24.312637 C 126.768195 24.312637 124.81724 23.774443 123.404479 22.698054 C 122.058993 21.554391 121.38625 19.737984 121.38625 17.114286 L 121.38625 5.004911 L 119.838941 5.004911 L 119.838941 4.466717 L 128.651875 4.466717 L 128.651875 5.004911 L 126.835469 5.004911 Z M 145.874098 18.056127 C 145.874098 19.737984 146.143195 21.08347 146.748664 22.025311 C 147.354132 22.899877 148.363247 23.370797 149.910556 23.370797 C 151.457865 23.370797 152.601528 22.899877 153.40882 21.958036 C 154.216112 21.016196 154.619757 19.536161 154.619757 17.585206 L 154.619757 5.004911 L 152.803351 5.004911 L 152.803351 4.466717 L 156.907084 4.466717 L 156.907084 5.004911 L 155.359775 5.004911 L 155.359775 17.450658 C 155.359775 19.737984 154.82158 21.419842 153.812466 22.563505 C 152.803351 23.707168 150.986945 24.312637 148.430521 24.312637 C 145.806823 24.312637 143.855868 23.774443 142.443108 22.698054 C 141.097622 21.554391 140.424879 19.737984 140.424879 17.114286 L 140.424879 5.004911 L 138.87757 5.004911 L 138.87757 4.466717 L 147.690504 4.466717 L 147.690504 5.004911 L 145.874098 5.004911 Z M 158.050747 4.466717 L 166.52731 4.466717 L 166.52731 5.004911 L 164.980001 5.004911 L 164.980001 23.438071 L 166.52731 23.438071 L 166.52731 23.976266 L 158.050747 23.976266 L 158.050747 23.438071 L 159.598056 23.438071 L 159.598056 5.004911 L 158.050747 5.004911 Z M 183.682258 5.004911 L 183.682258 23.976266 L 179.780348 23.976266 L 170.227396 5.946752 L 170.227396 23.438071 L 171.774706 23.438071 L 171.774706 23.976266 L 167.94007 23.976266 L 167.94007 23.438071 L 169.487379 23.438071 L 169.487379 5.004911 L 167.94007 5.004911 L 167.94007 4.466717 L 175.609341 4.466717 L 182.94224 18.459772 L 182.94224 5.004911 L 181.394931 5.004911 L 181.394931 4.466717 L 185.229567 4.466717 L 185.229567 5.004911 Z M 193.437032 18.056127 C 193.437032 19.737984 193.773404 21.08347 194.378872 22.025311 C 194.917067 22.899877 195.993456 23.370797 197.540765 23.370797 C 199.0208 23.370797 200.231737 22.899877 201.039029 21.958036 C 201.84632 21.016196 202.249966 19.536161 202.249966 17.585206 L 202.249966 5.004911 L 200.43356 5.004911 L 200.43356 4.466717 L 204.537293 4.466717 L 204.537293 5.004911 L 202.989984 5.004911 L 202.989984 17.450658 C 202.989984 19.737984 202.451789 21.419842 201.442675 22.563505 C 200.43356 23.707168 198.617154 24.312637 195.993456 24.312637 C 193.437032 24.312637 191.418803 23.774443 190.073317 22.698054 C 188.727831 21.554391 188.055088 19.737984 188.055088 17.114286 L 188.055088 5.004911 L 186.507779 5.004911 L 186.507779 4.466717 L 195.253438 4.466717 L 195.253438 5.004911 L 193.437032 5.004911 Z M 193.437032 18.056127 " stroke="#a6a6a6" stroke-width="1.045511" stroke-opacity="1" stroke-miterlimit="4"/></svg>